#!OML:ASF \\sashay\E\Suitcase\Project 1\Capture day 1\Session 1\Male1.ASF
:FULLY-SPECIFIED
:DEGREES
547
root 1.19981 17.3904 -2.63629 1.93733 -2.05941 3.30773
lowerback 2.46179 0.950566 -3.90956
upperback -0.65164 1.12086 -0.974522
thorax -2.10641 0.602435 1.14137
lowerneck -11.8212 -0.65109 1.09172
upperneck 12.2195 0.328021 -9.7628
head 5.66065 -0.513584 -3.23867
rclavicle -4.51148e-015 -2.32081e-014
rhumerus -23.8033 -29.727 -69.9776
rradius 25.8771
rwrist -5.87428
rhand -19.432 34.5521
rfingers 7.12502
rthumb 6.88815 4.68414
lclavicle -4.51148e-015 -2.32081e-014
lhumerus -37.6982 7.73221 79.7869
lradius 23.8773
lwrist -13.7897
lhand -0.33956 41.3249
lfingers 7.12502
lthumb 25.2651 69.672
rfemur -8.3337 -3.61494 15.4434
rtibia 63.7888
rfoot -2.96319 -12.1798
rtoes 20.3605
lfemur -13.7466 2.80097 -29.9992
ltibia 20.4872
lfoot -12.1956 -9.84222
ltoes 11.1894
548
root 1.2066 17.3825 -2.53583 1.59572 -1.82446 3.61038
lowerback 2.80761 0.866242 -4.19504
upperback -0.601407 0.978631 -1.12525
thorax -2.2447 0.535744 1.14764
lowerneck -11.3028 -0.81211 1.24135
upperneck 11.8895 0.0333283 -9.66709
head 5.45003 -0.621015 -3.24454
rclavicle -1.65706e-014 4.57205e-015
rhumerus -24.0902 -30.7143 -69.6668
rradius 25.3287
rwrist -4.93078
rhand -18.8845 34.2269
rfingers 7.12502
rthumb 7.41663 4.37694
lclavicle -1.65706e-014 4.57205e-015
lhumerus -37.6809 7.12138 79.8242
lradius 24.1857
lwrist -13.0618
lhand -1.03618 40.7205
lfingers 7.12502
lthumb 24.5975 69.1601
rfemur -9.19677 -3.81811 15.0245
rtibia 64.8941
rfoot -3.49882 -12.187
rtoes 21.2666
lfemur -12.9925 2.84076 -30.3562
ltibia 20.5638
lfoot -12.5291 -9.87109
ltoes 10.6073
549
root 1.21316 17.3863 -2.42548 1.47893 -1.80656 3.59776
lowerback 3.18226 0.788571 -4.30084
upperback -0.708121 0.847507 -1.08189
thorax -2.56117 0.479059 1.25171
lowerneck -11.5544 -0.468536 1.22603
upperneck 12.3838 0.580875 -9.8965
head 5.6813 -0.392377 -3.28316
rclavicle 5.02397e-015 -2.98177e-015
rhumerus -25.021 -30.062 -69.4859
rradius 25.6521
rwrist -5.39931
rhand -18.3483 33.8356
rfingers 7.12502
rthumb 7.93422 4.00454
lclavicle 5.02397e-015 -2.98177e-015
lhumerus -37.9109 7.11693 79.766
lradius 24.6147
lwrist -12.9438
lhand -1.2823 39.6941
lfingers 7.12502
lthumb 24.3616 68.1657
rfemur -10.2117 -3.73409 15.0513
rtibia 65.7181
rfoot -3.85365 -12.0507
rtoes 21.7473
lfemur -12.4599 2.79369 -30.3055
ltibia 20.6105
lfoot -12.6854 -9.79213
ltoes 12.4895
550
root 1.22708 17.3808 -2.32938 1.33064 -1.43302 3.77269
lowerback 3.13463 0.688978 -4.42301
upperback -0.410887 0.721307 -1.14619
thorax -2.22184 0.407236 1.26397
lowerneck -11.2875 -0.54251 1.1489
upperneck 12.1636 0.457675 -9.804
head 5.55894 -0.435924 -3.2441
rclavicle -4.81432e-015 2.48481e-015
rhumerus -24.7252 -30.4395 -69.4799
rradius 25.081
rwrist -5.16888
rhand -18.3047 33.8253
rfingers 7.12502
rthumb 7.97628 3.99577
lclavicle -4.81432e-015 2.48481e-015
lhumerus -37.258 6.46932 80.1235
lradius 24.7433
lwrist -12.403
lhand -1.35052 40.7768
lfingers 7.12502
lthumb 24.2962 69.2571
rfemur -11.2743 -3.92227 14.8139
rtibia 66.4486
rfoot -4.24852 -11.7055
rtoes 17.8985
lfemur -12.0015 2.88131 -30.5711
ltibia 20.7372
lfoot -12.9214 -10.0832
ltoes 11.7442
551
root 1.23819 17.3707 -2.22334 1.09125 -1.12996 4.12027
lowerback 3.39402 0.562555 -4.8103
upperback -0.410348 0.519484 -1.23388
thorax -2.35931 0.313595 1.3983
lowerneck -11.0796 -0.655379 1.81812
upperneck 12.4194 0.337512 -10.7225
head 5.59621 -0.53119 -3.66096
rclavicle -3.81729e-015 2.38542e-015
rhumerus -25.3859 -30.8209 -69.0191
rradius 24.7327
rwrist -4.34706
rhand -17.9463 32.9952
rfingers 7.12502
rthumb 8.32218 3.17913
lclavicle -3.81729e-015 2.38542e-015
lhumerus -37.0749 6.79807 79.8711
lradius 24.7341
lwrist -12.9617
lhand -1.37631 40.6517
lfingers 7.12502
lthumb 24.2715 69.1353
rfemur -12.013 -4.10222 14.289
rtibia 66.9623
rfoot -4.83331 -10.7167
rtoes 20.0006
lfemur -11.4551 2.72051 -30.964
ltibia 20.9904
lfoot -13.1803 -10.1285
ltoes 13.4077
552
root 1.24821 17.3636 -2.12935 1.14488 -0.898467 3.90201
lowerback 3.44932 0.47695 -4.6035
upperback -0.449343 0.411259 -1.15484
thorax -2.42289 0.259325 1.36946
lowerneck -11.07 -0.743897 1.62675
upperneck 12.3678 0.206624 -10.455
head 5.56965 -0.582939 -3.55241
rclavicle -1.37783e-014 4.62174e-015
rhumerus -25.7451 -30.539 -68.7997
rradius 24.4701
rwrist -4.68007
rhand -17.4438 32.571
rfingers 7.12502
rthumb 8.80711 2.7748
lclavicle -1.37783e-014 4.62174e-015
lhumerus -36.769 6.40881 80.1242
lradius 25.0177
lwrist -12.4192
lhand -1.12644 42.0185
lfingers 7.12502
lthumb 24.511 70.4699
rfemur -13.2126 -3.97743 14.607
rtibia 67.3557
rfoot -5.51619 -10.477
rtoes 17.7679
lfemur -11.2816 2.92065 -30.8237
ltibia 21.2359
lfoot -13.5565 -10.2549
ltoes 11.8558
553
root 1.24025 17.3555 -2.03519 1.01896 -0.833701 3.8465
lowerback 3.73077 0.476214 -4.68583
upperback -0.352094 0.392873 -1.16307
thorax -2.48034 0.250913 1.40669
lowerneck -10.788 -0.66923 1.53789
upperneck 12.2614 0.307213 -10.4301
head 5.4948 -0.5257 -3.51649
rclavicle 7.46064e-015 -1.28216e-014
rhumerus -26.0694 -30.8134 -68.7662
rradius 24.2745
rwrist -4.20656
rhand -17.0676 32.0224
rfingers 7.12502
rthumb 9.17009 2.24178
lclavicle 7.46064e-015 -1.28216e-014
lhumerus -36.4835 6.15229 80.138
lradius 25.4751
lwrist -12.3996
lhand -1.73006 41.2019
lfingers 7.12502
lthumb 23.9323 69.7304
rfemur -14.2992 -3.63181 14.7899
rtibia 67.6449
rfoot -6.08265 -10.0799
rtoes 17.9062
lfemur -10.9402 2.72949 -30.698
ltibia 21.4151
lfoot -14.1554 -9.86632
ltoes 10.7904
554
root 1.2436 17.343 -1.93304 0.70106 -0.60132 3.97167
lowerback 4.03951 0.390404 -5.01549
upperback -0.222096 0.249931 -1.10585
thorax -2.51337 0.183148 1.65751
lowerneck -11.1415 -0.68361 1.50503
upperneck 12.5817 0.329155 -10.4541
head 5.65727 -0.537262 -3.52716
rclavicle -1.56481e-014 5.96354e-015
rhumerus -26.5135 -31.5215 -68.2379
rradius 23.8801
rwrist -3.32058
rhand -16.7799 32.1347
rfingers 7.12502
rthumb 9.44773 2.36642
lclavicle -1.56481e-014 5.96354e-015
lhumerus -36.1962 6.53683 80.0129
lradius 25.5431
lwrist -12.6125
lhand -1.96698 41.2927
lfingers 7.12502
lthumb 23.7051 69.8509
rfemur -14.9533 -3.45675 14.6334
rtibia 67.6876
rfoot -6.71117 -9.57168
rtoes 19.1891
lfemur -10.3568 2.72279 -30.8449
ltibia 21.7785
lfoot -14.3524 -9.92896
ltoes 9.78187
555
root 1.25796 17.3248 -1.83921 0.627637 -0.0686607 4.47522
lowerback 4.1344 0.234851 -5.4139
upperback -0.197776 0.0143955 -1.24617
thorax -2.52678 0.0701093 1.75002
lowerneck -10.4773 -0.90043 1.19487
upperneck 11.7615 -0.0348768 -10.171
head 5.26573 -0.667226 -3.38976
rclavicle -6.95746e-015 1.49089e-016
rhumerus -27.2455 -31.0858 -67.9811
rradius 24.045
rwrist -3.88869
rhand -16.4438 30.8259
rfingers 7.12502
rthumb 9.77204 1.07263
lclavicle -6.95746e-015 1.49089e-016
lhumerus -35.9695 6.28483 80.1813
lradius 25.9962
lwrist -12.1944
lhand -1.70127 42.6055
lfingers 7.12502
lthumb 23.9599 71.1304
rfemur -15.804 -3.72977 13.9054
rtibia 67.7127
rfoot -8.03861 -8.83214
rtoes 17.0601
lfemur -10.021 2.39899 -31.4594
ltibia 22.1167
lfoot -14.3276 -9.89123
ltoes 11.5118
556
root 1.25465 17.3103 -1.74086 0.53162 0.277056 4.16497
lowerback 4.28199 0.0209251 -5.25961
upperback -0.141011 -0.267712 -1.13511
thorax -2.53104 -0.0724734 1.79636
lowerneck -10.2371 -0.948826 1.23138
upperneck 11.4885 -0.137425 -10.1473
head 5.13353 -0.699969 -3.38794
rclavicle -1.2424e-017 2.3556e-014
rhumerus -27.5143 -31.2098 -67.9428
rradius 23.7576
rwrist -3.72507
rhand -16.412 30.2407
rfingers 7.12502
rthumb 9.8027 0.488894
lclavicle -1.2424e-017 2.3556e-014
lhumerus -35.7807 6.08115 80.181
lradius 26.5762
lwrist -11.9042
lhand -1.76616 42.0068
lfingers 7.12502
lthumb 23.8977 70.5399
rfemur -16.5345 -3.69915 14.3237
rtibia 67.4099
rfoot -9.08393 -8.55055
rtoes 15.4266
lfemur -9.68561 2.17751 -31.0993
ltibia 22.4815
lfoot -14.7111 -9.62562
ltoes 10.1731
557
root 1.25041 17.2878 -1.65867 0.514537 0.554641 4.54724
lowerback 4.39925 0.0166505 -5.81787
upperback -0.0417862 -0.308117 -1.21912
thorax -2.48988 -0.0887617 2.02455
lowerneck -10.3434 -1.12227 1.04272
upperneck 11.7028 -0.419371 -9.42817
head 5.20219 -0.805944 -3.15443
rclavicle 7.82404e-015 1.53064e-014
rhumerus -27.9065 -32.6192 -67.1924
rradius 23.049
rwrist -2.63726
rhand -15.7896 30.018
rfingers 7.12502
rthumb 10.4031 0.295312
lclavicle 7.82404e-015 1.53064e-014
lhumerus -35.1139 5.82928 80.3061
lradius 26.4486
lwrist -11.7347
lhand -1.5218 42.9863
lfingers 7.12502
lthumb 24.132 71.4885
rfemur -17.5268 -3.56095 13.8752
rtibia 67.0977
rfoot -9.58834 -8.22039
rtoes 16.0604
lfemur -9.58271 2.42704 -31.4945
ltibia 22.9805
lfoot -15.641 -9.7326
ltoes 10.5565
558
root 1.25591 17.2733 -1.56104 0.463481 1.09612 4.59296
lowerback 4.36242 -0.273928 -5.90946
upperback 0.191998 -0.685428 -1.1866
thorax -2.19636 -0.28748 2.13181
lowerneck -10.742 -0.837077 1.39837
upperneck 12 0.065769 -10.3463
head 5.39065 -0.635212 -3.47948
rclavicle 1.69278e-015 -2.38542e-015
rhumerus -27.8315 -32.6677 -67.2289
rradius 22.6582
rwrist -2.44497
rhand -15.5668 29.9315
rfingers 7.12502
rthumb 10.618 0.219723
lclavicle 1.69278e-015 -2.38542e-015
lhumerus -34.4276 6.0114 80.3833
lradius 26.7824
lwrist -11.4239
lhand -1.89618 43.1113
lfingers 7.12502
lthumb 23.773 71.6607
rfemur -18.2894 -3.54117 13.7795
rtibia 66.5695
rfoot -10.3855 -8.0322
rtoes 14.2241
lfemur -9.31073 2.1917 -31.5498
ltibia 23.4451
lfoot -15.4573 -9.64038
ltoes 11.911
559
root 1.25017 17.2669 -1.45079 0.142962 0.941798 3.8104
lowerback 4.7129 -0.171776 -5.26071
upperback 0.0846921 -0.540288 -0.983232
thorax -2.51909 -0.211278 1.97329
lowerneck -9.90585 -0.961034 1.34932
upperneck 11.5229 -0.177062 -10.1321
head 5.08397 -0.705539 -3.40194
rclavicle 4.4447e-015 1.44119e-014
rhumerus -29.0656 -32.4197 -66.6729
rradius 22.7605
rwrist -2.68657
rhand -15.4979 29.1268
rfingers 7.12502
rthumb 10.6845 -0.581476
lclavicle 4.4447e-015 1.44119e-014
lhumerus -34.7368 5.43651 80.4604
lradius 27.4061
lwrist -10.992
lhand -1.7287 43.556
lfingers 7.12502
lthumb 23.9336 72.0844
rfemur -18.8535 -2.81462 14.7474
rtibia 65.8533
rfoot -11.3634 -8.09195
rtoes 11.9689
lfemur -8.90548 2.1507 -30.6247
ltibia 23.9684
lfoot -16.3859 -9.59772
ltoes 11.2525
560
root 1.25858 17.2406 -1.36009 0.161841 1.6093 4.92529
lowerback 4.72375 -0.352776 -6.40531
upperback 0.281977 -0.841353 -1.25141
thorax -2.28789 -0.35945 2.35471
lowerneck -10.4256 -0.919661 1.45667
upperneck 12.2975 -0.00470582 -10.5693
head 5.42369 -0.682761 -3.56707
rclavicle -1.07468e-014 2.27608e-014
rhumerus -29.1712 -33.4884 -66.182
rradius 22.0402
rwrist -1.77494
rhand -15.0249 28.6327
rfingers 7.12502
rthumb 11.1408 -1.05151
lclavicle -1.07468e-014 2.27608e-014
lhumerus -33.807 5.51502 80.5706
lradius 27.3701
lwrist -11.153
lhand -1.61973 42.7225
lfingers 7.12502
lthumb 24.0381 71.2372
rfemur -19.5374 -3.1333 13.2703
rtibia 65.2341
rfoot -12.0636 -7.62391
rtoes 11.3692
lfemur -8.65634 1.90356 -31.9117
ltibia 24.4854
lfoot -16.0131 -9.41115
ltoes 12.7228
